<svg width="734" height="483" viewBox="0 0 734 483" fill="none" xmlns="http://www.w3.org/2000/svg">
<path d="M584.534 291.09L583.1 304.779C579.368 313.695 575.64 322.605 571.914 331.509C570.612 334.636 569.306 337.757 567.993 340.873C567.398 342.331 566.554 343.673 565.499 344.842C565.446 344.92 565.377 344.986 565.295 345.034C565.214 345.081 565.123 345.11 565.029 345.117C564.713 345.117 564.599 344.696 564.575 344.38C564.396 341.004 563.992 337.643 563.368 334.32C559.877 318.274 541.247 312.393 526.635 312.758C520.789 312.847 515.029 314.181 509.738 316.67C502.108 320.364 499.135 330.634 498.73 331.015L498.406 332.335L493.174 354.133C492.072 358.993 491.23 361.56 486.742 362.856C486.596 362.905 482.125 365.286 481.979 365.286C480.246 365.772 484.993 364.727 483.113 364.412L477.16 363.48L474.625 362.897L437.632 354.141C439.066 354.384 440.532 354.651 442.022 354.951L450.608 357L448.34 346.114C442.435 312.223 452.22 281.476 468.89 264.782C473.28 260.391 475.459 259.265 480.578 256.341L483.454 263.153C483.454 263.153 512.873 271.926 519.806 245.009C522.609 245.252 527.996 245.212 530.774 245.819C545.256 248.855 558.336 256.575 567.993 267.787C568.844 268.759 569.678 269.763 570.504 270.784L570.942 271.318C571.452 271.958 571.995 272.614 572.505 273.27L572.87 273.789C577.104 279.315 580.999 285.093 584.534 291.09V291.09Z" fill="#353642"/>
<path d="M234.97 149.405C239.636 126.077 259.448 103.478 316.035 98.3022C441.812 86.8083 373.82 52.1322 414.774 14.1837C455.727 -23.7648 610.575 38.67 570.067 136.178C529.559 233.686 663.282 125.461 719.917 248.97C728.121 266.893 732.072 286.47 731.459 306.172C730.745 326.99 725.384 347.384 715.77 365.861C697.682 401.194 664.084 432.67 615.492 452.175C608.321 455.096 600.815 457.723 592.974 460.056" stroke="#CCDDE2" stroke-width="4.52" stroke-miterlimit="10"/>
<path d="M633.393 341.262C632.413 352.707 624.653 354.57 624.653 354.57C618.092 358.45 608.015 354.278 605.982 347.005C605.952 346.927 605.936 346.845 605.934 346.762C604.314 340.533 601.155 332.53 596.91 323.774C588.729 303.977 578.094 284.019 564.454 268.232C554.796 257.022 541.716 249.302 527.234 246.265C527.186 246.265 527.161 246.216 527.113 246.216C507.908 240.433 498.56 228.623 494.51 217.299C494.51 217.299 494.51 217.299 494.51 217.251C492.777 210.098 491.011 203.124 491.959 198.904C493.579 191.509 494.389 183.514 492.372 181.894C489.837 179.772 485.252 181.343 473.588 183.692C463.487 185.766 458.101 184.592 456.886 178.419C456.694 177.462 456.596 176.488 456.594 175.511C456.545 176.127 454.164 173.681 454.051 174.264C453.289 177.415 451.766 178.679 448.445 180.064C443.513 182.113 441.496 190.027 440.767 195.3C440.005 200.913 442.532 208.657 444.533 213.93C441.974 211.006 439.041 211.346 434.457 213.12C433.307 213.557 430.407 213.436 428.115 212.634C428.438 212.356 428.82 212.154 429.232 212.042C429.969 211.799 424.623 209.143 425.401 208.973C433.185 207.215 437.551 200.727 436.628 195.016C434.335 180.639 437.389 163.726 447.101 152.524C457.809 140.204 475.281 137.644 490.071 143.282C501.687 147.696 512.67 156.752 516.696 168.829C516.696 168.878 516.696 168.926 516.745 168.975C517.257 170.511 517.649 172.084 517.919 173.681C519.402 182.664 516.234 191.768 514.477 200.646C513.845 203.845 515.449 207.336 515.789 209.872C517.741 225.1 535.318 229.401 549.226 235.865C578.459 249.481 602.329 272.76 618.383 301.069C629.043 319.813 632.85 332.595 633.393 341.262Z" fill="#3FA75D"/>
<path d="M479.282 253.32C478.966 253.49 478.65 253.66 478.359 253.855C473.109 256.864 468.282 260.557 464.006 264.838C447.344 281.532 437.559 312.28 443.464 346.17L445.732 357" stroke="black" stroke-width="4.52" stroke-miterlimit="10"/>
<path d="M626.702 480.719C626.706 455.419 624.519 430.166 620.166 405.244C617.254 388.334 613.244 371.631 608.161 355.242C605.108 345.287 601.373 334.547 596.935 323.766C592.813 313.677 588.051 303.861 582.679 294.379C577.47 285.094 571.375 276.335 564.478 268.224C554.82 257.014 541.74 249.294 527.258 246.257C524.481 245.668 521.671 245.246 518.843 244.993" stroke="black" stroke-width="4.52" stroke-miterlimit="10"/>
<path d="M327.31 260.537L326.897 260.464C321.95 259.635 316.875 260.061 312.135 261.703C307.396 263.344 303.144 266.149 299.77 269.86L272.068 300.041L268.828 303.605C268.626 303.824 268.437 304.053 268.261 304.293" stroke="black" stroke-width="4.52" stroke-miterlimit="10"/>
<path d="M287.304 312.175L302.508 295.31L302.532 295.286" stroke="black" stroke-width="4.52" stroke-miterlimit="10"/>
<path d="M419.561 399.282L491.076 424.481C497.963 426.908 505.292 427.824 512.565 427.165C519.838 426.507 526.883 424.29 533.223 420.666C539.562 417.042 545.047 412.095 549.304 406.161C553.561 400.228 556.49 393.448 557.893 386.281L574.814 299.903C575.679 295.468 575.639 290.903 574.695 286.483C573.751 282.064 571.924 277.881 569.322 274.186C568.595 273.145 567.805 272.149 566.957 271.205" stroke="black" stroke-width="4.52" stroke-miterlimit="10"/>
<path d="M372.233 395.799C363.128 401.947 356.438 420.617 352.882 432.873C352.272 434.928 351.013 436.73 349.293 438.01C347.572 439.289 345.484 439.976 343.34 439.968C341.888 439.968 340.454 439.653 339.136 439.045C337.114 438.097 335.47 436.495 334.471 434.497C333.471 432.5 333.174 430.224 333.628 428.037C339.581 398.926 360.593 341.456 432.772 354.124C434.214 354.367 435.68 354.635 437.162 354.934L445.732 357L469.765 362.856L476.245 364.42C478.703 365.016 481.279 364.924 483.689 364.152C483.837 364.123 483.984 364.082 484.126 364.031C486.345 363.269 488.337 361.96 489.916 360.224C491.495 358.488 492.61 356.382 493.157 354.1L498.625 331.355L498.941 330.035L506.101 300.3" stroke="black" stroke-width="4.52" stroke-miterlimit="10"/>
<path d="M337.03 302.592H312.536C309.743 302.592 307.065 301.483 305.09 299.508C303.115 297.533 302.006 294.855 302.006 292.062V292.062C302.006 289.27 303.115 286.591 305.09 284.617C307.065 282.642 309.743 281.532 312.536 281.532H347.236" stroke="black" stroke-width="4.52" stroke-miterlimit="10"/>
<path d="M318.23 302.584C317.882 306.877 316.245 310.052 313.832 312.248C307.611 317.918 296.214 317.269 288.284 313.39" stroke="black" stroke-width="4.52" stroke-miterlimit="10"/>
<path d="M272.1 300.033C265.078 291.544 266.511 280.034 271.963 271.14C287.426 245.9 322.758 250.744 345.673 261.234C364.238 269.706 380.503 282.439 396.338 295.14C404.074 301.345 411.671 307.809 419.018 314.58C420.367 315.801 421.975 316.699 423.721 317.209C425.467 317.718 427.306 317.824 429.1 317.52C430.893 317.216 432.594 316.509 434.075 315.453C435.555 314.397 436.777 313.018 437.648 311.421C441.698 303.945 446.08 295.788 446.907 293.528" stroke="black" stroke-width="4.52" stroke-miterlimit="10"/>
<path d="M313.84 312.247C313.84 312.247 350.379 332.068 377.522 360.548" stroke="black" stroke-width="4.52" stroke-miterlimit="10"/>
<path d="M363.314 406.548C359.264 413.465 362.747 423.623 370.402 426.053C380.178 429.207 390.513 430.243 400.72 429.09C411.858 427.794 419.261 418.601 424.137 408.071C424.49 407.287 424.674 406.438 424.678 405.579C424.681 404.72 424.504 403.869 424.157 403.083C423.81 402.297 423.302 401.593 422.665 401.016C422.028 400.439 421.277 400.003 420.46 399.736V399.736C418.986 399.25 417.384 399.339 415.973 399.983C414.562 400.627 413.445 401.779 412.846 403.211C411.226 406.953 408.723 411.635 405.402 413.741" stroke="black" stroke-width="4.52" stroke-miterlimit="10"/>
<path d="M382.39 405.252C382.39 405.252 372.386 416.008 380.276 427.397C380.622 427.876 381.031 428.306 381.491 428.677" stroke="black" stroke-width="4.52" stroke-miterlimit="10"/>
<path d="M395.585 407.026C395.585 407.026 386.335 427.843 398.201 429.365" stroke="black" stroke-width="4.52" stroke-miterlimit="10"/>
<path d="M723.999 480.736H151.135" stroke="black" stroke-width="4.52" stroke-miterlimit="10"/>
<path d="M376.501 441.507H319.372C318.792 446.901 316.237 451.888 312.199 455.51C308.161 459.133 302.926 461.133 297.502 461.125H105.483C105.494 466.319 107.562 471.296 111.234 474.969C114.906 478.641 119.884 480.709 125.077 480.719H376.501C381.703 480.717 386.692 478.654 390.377 474.982C394.061 471.31 396.141 466.327 396.16 461.125V447.955C396.16 446.236 395.477 444.588 394.262 443.373C393.047 442.158 391.399 441.475 389.68 441.475L376.501 441.507Z" stroke="black" stroke-width="4.52" stroke-miterlimit="10"/>
<path d="M288.284 313.39C289.967 315.719 291.178 318.355 291.848 321.149L318.91 434.015C319.508 436.465 319.664 439.002 319.372 441.507C318.792 446.901 316.237 451.888 312.199 455.51C308.161 459.133 302.926 461.133 297.502 461.125H101.919C96.9798 461.125 92.1844 459.46 88.3064 456.401C84.4284 453.341 81.6938 449.065 80.5435 444.261L53.53 331.404C52.7533 328.173 52.7197 324.807 53.4317 321.561C54.1437 318.315 55.5826 315.272 57.6403 312.662C59.6981 310.053 62.3209 307.944 65.3115 306.494C68.3021 305.044 71.5825 304.292 74.9059 304.293H270.472C273.685 304.287 276.86 304.99 279.769 306.352C282.679 307.715 285.252 309.703 287.304 312.175L288.284 313.39Z" stroke="black" stroke-width="4.52" stroke-miterlimit="10"/>
<path d="M257.65 172.928C256.403 171.461 255.09 170.052 253.722 168.683C246.04 160.975 236.911 154.86 226.86 150.69C216.809 146.52 206.033 144.377 195.15 144.383H92.6206C81.7413 144.379 70.9677 146.519 60.9158 150.68C50.8639 154.842 41.7306 160.944 34.0382 168.637C26.3457 176.33 20.2447 185.464 16.0841 195.516C11.9235 205.569 9.78468 216.343 9.79 227.222V227.813C9.77955 235.532 11.7455 243.125 15.5005 249.869C19.7202 254.167 24.757 257.577 30.3143 259.899C35.8716 262.22 41.8372 263.407 47.86 263.388H148.381C151.449 263.388 154.391 264.607 156.56 266.776C158.729 268.945 159.948 271.887 159.948 274.955C159.952 278.026 161.175 280.971 163.348 283.141C165.522 285.311 168.468 286.53 171.539 286.53H171.79L196.608 285.898C196.608 285.655 196.56 285.437 196.56 285.218C194.414 284.48 192.553 283.091 191.236 281.243C189.919 279.396 189.211 277.183 189.213 274.915V274.38C189.215 271.313 190.435 268.372 192.603 266.203C194.772 264.035 197.713 262.815 200.78 262.813H225.25C237.28 262.813 248.818 258.034 257.324 249.528C265.831 241.021 270.61 229.483 270.61 217.453C270.652 201.675 266.153 186.218 257.65 172.928ZM80.098 220.92C76.1752 220.922 72.3401 219.76 69.0778 217.581C65.8156 215.403 63.2728 212.305 61.7713 208.681C60.2697 205.057 59.8768 201.069 60.6423 197.222C61.4078 193.374 63.2973 189.841 66.0717 187.067C68.8461 184.294 72.3808 182.406 76.2285 181.642C80.0762 180.878 84.064 181.273 87.6874 182.776C91.3109 184.279 94.407 186.823 96.5843 190.086C98.7615 193.349 99.9219 197.185 99.9187 201.107C99.9123 206.361 97.8217 211.398 94.1058 215.113C90.3898 218.827 85.3521 220.916 80.098 220.92ZM144.793 220.92C140.871 220.918 137.037 219.754 133.777 217.573C130.517 215.393 127.977 212.294 126.478 208.67C124.978 205.046 124.588 201.058 125.355 197.212C126.123 193.366 128.013 189.833 130.788 187.062C133.563 184.29 137.098 182.403 140.945 181.641C144.793 180.878 148.78 181.274 152.402 182.777C156.025 184.281 159.12 186.825 161.296 190.088C163.473 193.35 164.633 197.185 164.63 201.107C164.63 203.711 164.116 206.29 163.119 208.695C162.122 211.1 160.66 213.286 158.818 215.126C156.976 216.966 154.789 218.425 152.382 219.419C149.976 220.413 147.397 220.923 144.793 220.92V220.92ZM206.409 220.92C202.488 220.917 198.655 219.751 195.396 217.569C192.137 215.388 189.598 212.289 188.1 208.664C186.602 205.04 186.213 201.053 186.981 197.207C187.749 193.361 189.641 189.83 192.416 187.059C195.191 184.288 198.726 182.402 202.573 181.64C206.42 180.878 210.407 181.274 214.029 182.778C217.651 184.282 220.746 186.826 222.922 190.088C225.098 193.351 226.258 197.186 226.254 201.107C226.254 203.712 225.741 206.291 224.743 208.697C223.745 211.103 222.283 213.288 220.44 215.129C218.597 216.969 216.409 218.427 214.001 219.421C211.594 220.415 209.014 220.924 206.409 220.92V220.92Z" fill="#97E0AC"/>
<path d="M270.61 217.461C270.61 229.492 265.831 241.029 257.324 249.536C248.818 258.042 237.28 262.821 225.25 262.821H200.796C197.73 262.823 194.791 264.042 192.622 266.209C190.454 268.376 189.234 271.314 189.229 274.38V274.915C189.228 277.183 189.935 279.396 191.252 281.243C192.569 283.091 194.431 284.48 196.576 285.218C197.706 285.611 198.895 285.808 200.091 285.801L196.625 285.898L171.79 286.53H171.523C168.453 286.53 165.508 285.312 163.335 283.144C161.162 280.975 159.938 278.033 159.932 274.963C159.932 271.895 158.713 268.953 156.544 266.784C154.375 264.615 151.433 263.396 148.365 263.396H47.86C35.8298 263.396 24.2923 258.617 15.7856 250.111C7.27899 241.604 2.5 230.067 2.5 218.036V217.445C2.50106 206.573 4.64355 195.807 8.80512 185.763C12.9667 175.719 19.0659 166.593 26.7544 158.906C34.4429 151.219 43.5702 145.122 53.6152 140.962C63.6602 136.802 74.4261 134.662 85.2982 134.663H187.796C209.756 134.665 230.816 143.389 246.346 158.916C261.876 174.442 270.604 195.501 270.61 217.461Z" stroke="black" stroke-width="4.52" stroke-miterlimit="10"/>
<path d="M527.234 246.233C527.186 246.233 527.161 246.184 527.113 246.184C507.908 240.401 498.56 228.591 494.51 217.267C494.51 217.267 494.51 217.267 494.51 217.218C491.343 208.389 491.416 199.844 492.558 194.741C493.242 192.038 493.676 189.278 493.854 186.495C494.121 178.614 488.338 180.541 471.798 183.838C464.2 185.377 459.34 182.494 456.91 178.395C456.673 178.038 456.467 177.661 456.294 177.269C455.161 174.883 454.691 172.237 454.934 169.607" stroke="black" stroke-width="4.52" stroke-miterlimit="10"/>
<path d="M445.416 214.999C445.125 214.586 444.825 214.189 444.533 213.873C441.974 210.949 439.041 211.289 434.457 213.063C433.307 213.5 430.407 213.379 428.115 212.577C426.187 211.889 424.745 210.698 425.401 208.916C425.57 208.549 425.82 208.227 426.133 207.972C426.447 207.718 426.814 207.539 427.207 207.45C427.971 207.257 428.744 207.103 429.524 206.988C437.389 205.23 435.631 196.126 434.676 190.415C432.359 176.046 435.437 159.133 445.246 147.931C456.051 135.611 473.726 133.043 488.654 138.681C501.784 143.638 514.137 154.395 516.696 168.772C516.696 168.821 516.696 168.869 516.745 168.918C516.793 168.967 516.745 169.04 516.745 169.088C518.259 178.071 516.745 187.807 514.987 196.693C513.934 201.958 514.331 206.259 515.797 209.815C520.39 221.455 535.885 225.513 548.375 231.272C577.932 244.888 602.013 268.167 618.246 296.477C631.06 318.93 634.097 332.741 633.393 341.262C632.413 352.707 624.653 354.57 624.653 354.57C618.092 358.45 608.007 354.278 605.982 347.005C605.952 346.927 605.936 346.845 605.934 346.762C604.314 340.533 601.155 332.53 596.91 323.774" stroke="black" stroke-width="4.52" stroke-miterlimit="10"/>
<path d="M454.901 169.607C454.901 173.94 452.86 178.217 448.421 180.039C443.432 182.097 441.407 187.516 440.678 192.789C439.659 200.51 441.32 208.347 445.384 214.991C449.15 221.244 455.282 228.137 463.965 228.137C479.874 228.137 486.694 220.466 486.694 220.466" stroke="black" stroke-width="4.52" stroke-miterlimit="10"/>
<path d="M471.417 195.275C472.911 195.275 474.122 194.064 474.122 192.57C474.122 191.076 472.911 189.865 471.417 189.865C469.923 189.865 468.712 191.076 468.712 192.57C468.712 194.064 469.923 195.275 471.417 195.275Z" fill="black"/>
<path d="M447.619 196.855C449.113 196.855 450.325 195.644 450.325 194.149C450.325 192.655 449.113 191.444 447.619 191.444C446.125 191.444 444.914 192.655 444.914 194.149C444.914 195.644 446.125 196.855 447.619 196.855Z" fill="black"/>
<path d="M459.291 190.027C459.291 190.027 457.939 200.71 458.481 202.177C459.024 203.643 462.41 201.966 462.41 201.966" stroke="black" stroke-width="4.52" stroke-miterlimit="10"/>
<path d="M464.305 211.313C470.097 213.444 476.075 210.73 477.824 205.522" stroke="black" stroke-width="4.52" stroke-miterlimit="10"/>
<path d="M485.42 196.48C489.348 190.919 487.915 183.149 482.219 179.125C476.523 175.1 468.721 176.346 464.792 181.907C460.863 187.468 462.296 195.238 467.992 199.263C473.689 203.287 481.491 202.041 485.42 196.48Z" stroke="black" stroke-width="4.52" stroke-miterlimit="10"/>
<path d="M453.783 198.07C457.712 192.509 456.279 184.739 450.583 180.715C444.887 176.69 437.085 177.936 433.156 183.497C429.227 189.058 430.66 196.828 436.356 200.852C442.052 204.877 449.855 203.631 453.783 198.07Z" stroke="black" stroke-width="4.52" stroke-miterlimit="10"/>
<path d="M443.245 182.194C445.495 182.187 447.664 183.032 449.317 184.559C450.969 186.085 451.984 188.18 452.155 190.423C452.246 191.538 452.11 192.659 451.756 193.72C451.403 194.78 450.839 195.758 450.098 196.596C449.349 197.444 448.436 198.133 447.415 198.62C446.393 199.107 445.283 199.383 444.153 199.431H443.699C441.448 199.437 439.278 198.591 437.625 197.063C435.972 195.535 434.959 193.438 434.789 191.193C434.701 190.078 434.838 188.957 435.193 187.897C435.548 186.836 436.113 185.858 436.854 185.021C437.604 184.174 438.515 183.487 439.535 183C440.555 182.513 441.663 182.236 442.792 182.186H443.245V182.194ZM443.245 180.355H442.703C441.337 180.416 439.998 180.751 438.764 181.34C437.531 181.928 436.428 182.759 435.521 183.782C434.615 184.805 433.923 185.999 433.487 187.295C433.051 188.59 432.879 189.96 432.983 191.323C433.202 194.023 434.428 196.542 436.417 198.382C438.406 200.221 441.014 201.246 443.723 201.253H444.266C445.631 201.192 446.971 200.857 448.204 200.269C449.438 199.68 450.541 198.85 451.447 197.827C452.354 196.804 453.046 195.609 453.482 194.314C453.918 193.018 454.089 191.649 453.986 190.286C453.767 187.585 452.541 185.066 450.552 183.227C448.562 181.387 445.955 180.363 443.245 180.355Z" fill="white"/>
<path d="M462.612 189.857L455.97 190.197" stroke="black" stroke-width="4.52" stroke-miterlimit="10"/>
<path opacity="0.53" d="M483.838 195.363C487.166 190.653 485.953 184.073 481.13 180.666C476.307 177.259 469.7 178.315 466.373 183.024C463.046 187.734 464.259 194.314 469.081 197.721C473.904 201.128 480.511 200.073 483.838 195.363Z" fill="white"/>
<path opacity="0.53" d="M452.202 196.953C455.53 192.243 454.317 185.663 449.494 182.256C444.671 178.849 438.064 179.905 434.737 184.614C431.41 189.324 432.623 195.904 437.445 199.311C442.268 202.718 448.875 201.662 452.202 196.953Z" fill="white"/>
<path d="M468.704 228.137L483.454 263.178C483.454 263.178 511.909 270.832 518.826 243.908" stroke="black" stroke-width="4.52" stroke-miterlimit="10"/>
<path d="M188.841 409.745C199.98 406.233 205.811 393.238 201.864 380.72C197.918 368.202 185.688 360.902 174.548 364.414C163.408 367.926 157.577 380.921 161.524 393.439C165.471 405.957 177.701 413.257 188.841 409.745Z" fill="#97E0AC"/>
<path d="M464.767 480.719C464.451 452.199 459.421 424.019 457.104 412.517" stroke="black" stroke-width="4.52" stroke-miterlimit="10"/>
</svg>
